
        <svg xmlns="http://www.w3.org/2000/svg" xmlns:xlink="http://www.w3.org/1999/xlink" version="1.1" width="3182.533501708052" 
        height="773.9420472421399" viewBox="0 0 3182.533501708052 773.9420472421399">
			
			<g transform="scale(9.126675085402594) translate(10, 10)">
				<defs id="SvgjsDefs1520"></defs><g id="SvgjsG1521" featureKey="nameLeftFeature-0" transform="matrix(1.1749107837677002,0,0,1.1749107837677002,0.14227434982151965,3.581336053034164)" fill="#3fc35f"><path d="M10.64 40 l-2.76 0 l-8 -30 l3.52 0 l5.84 22.84 l6 -22.84 l3.44 0 z M20.651000000000003 40 l0 -30 l14.72 0 l0 3.76 l-11.36 0 l0 9.24 l11.28 0 l0 3.32 l-11.28 0 l0 9.92 l11.64 0 l0 3.76 l-15 0 z M44.462 40.36 c-2.5067 0 -4.3932 -0.71332 -5.66 -2.14 s-1.9 -3.4867 -1.9 -6.18 l0 -14 c0 -2.7467 0.64 -4.82 1.92 -6.22 s3.2933 -2.1 6.04 -2.1 c2.5867 0 4.5068 0.70668 5.76 2.12 s1.88 3.4533 1.88 6.12 l0 2.8 l-3.48 0 l0 -3.2 c0 -0.58668 -0.06 -1.16 -0.18 -1.72 s-0.34 -1.06 -0.66 -1.5 s-0.75332 -0.79332 -1.3 -1.06 s-1.2467 -0.4 -2.1 -0.4 s-1.5666 0.12 -2.14 0.36 s-1.0333 0.58 -1.38 1.02 s-0.58668 0.98 -0.72 1.62 s-0.2 1.36 -0.2 2.16 l0 14.16 c0 1.6267 0.3 2.84 0.9 3.64 s1.7 1.2 3.3 1.2 c1.76 0 2.96 -0.42 3.6 -1.26 s0.96 -1.9933 0.96 -3.46 l0 -4.8 l-5.64 -0.04 l0 -3.4 l9.04 0.04 l0 7.92 c0 2.72 -0.62 4.7868 -1.86 6.2 s-3.3 2.12 -6.18 2.12 z M63.073 40.36 c-2.5067 0 -4.3932 -0.71332 -5.66 -2.14 s-1.9 -3.4867 -1.9 -6.18 l0 -14 c0 -2.7467 0.64 -4.82 1.92 -6.22 s3.2933 -2.1 6.04 -2.1 c2.5867 0 4.5068 0.70668 5.76 2.12 s1.88 3.4533 1.88 6.12 l0 2.8 l-3.48 0 l0 -3.2 c0 -0.58668 -0.06 -1.16 -0.18 -1.72 s-0.34 -1.06 -0.66 -1.5 s-0.75332 -0.79332 -1.3 -1.06 s-1.2467 -0.4 -2.1 -0.4 s-1.5666 0.12 -2.14 0.36 s-1.0333 0.58 -1.38 1.02 s-0.58668 0.98 -0.72 1.62 s-0.2 1.36 -0.2 2.16 l0 14.16 c0 1.6267 0.3 2.84 0.9 3.64 s1.7 1.2 3.3 1.2 c1.76 0 2.96 -0.42 3.6 -1.26 s0.96 -1.9933 0.96 -3.46 l0 -4.8 l-5.64 -0.04 l0 -3.4 l9.04 0.04 l0 7.92 c0 2.72 -0.62 4.7868 -1.86 6.2 s-3.3 2.12 -6.18 2.12 z M75.364 40 l0 -30 l3 0 l0 30 l-3 0 z M82.415 40 l0 -30 l14.72 0 l0 3.76 l-11.36 0 l0 9.24 l11.28 0 l0 3.32 l-11.28 0 l0 9.92 l11.64 0 l0 3.76 l-15 0 z"></path></g><g id="SvgjsG1522" featureKey="inlineSymbolFeature-0" transform="matrix(0.7425604462623596,0,0,0.7425604462623596,132.12837958818264,-2.871620411817368)" fill="#3fc35f"><g xmlns="http://www.w3.org/2000/svg"><g><g><path d="M47.5,7.251C25.271,7.251,7.251,25.271,7.251,47.5S25.271,87.749,47.5,87.749S87.749,69.729,87.749,47.5     S69.729,7.251,47.5,7.251z M30.334,18.68l16.4,28.4l-2.975,5.151l-1.327-2.239l-3.959,2.286     C38.474,52.278,22.693,23.091,30.334,18.68z M61.076,76.757c-1.158,0.669-2.639,0.271-3.307-0.886l-9.885-16.679l2.922-5.06     l11.155,19.316C62.631,74.606,62.234,76.089,61.076,76.757z M62.979,40.625c-1.371,2.374-4.304,3.362-7.199,2.684l-18.8,32.563     c-0.669,1.157-2.149,1.555-3.308,0.887c-1.158-0.669-1.555-2.15-0.887-3.308l18.801-32.563c-2.036-2.167-2.646-5.202-1.275-7.576     l8.447-14.632l1.739,1.005l-8.062,13.961c-0.326,0.567-0.133,1.292,0.435,1.619s1.291,0.132,1.618-0.433l8.061-13.963     l1.518,0.876l-8.061,13.962c-0.328,0.566-0.135,1.29,0.433,1.618c0.567,0.327,1.292,0.132,1.618-0.434l8.061-13.962l1.518,0.876     l-8.061,13.962c-0.328,0.565-0.134,1.291,0.434,1.618c0.565,0.326,1.291,0.132,1.617-0.434l8.062-13.962l1.739,1.004     L62.979,40.625z"></path></g></g><g><g><path d="M47.5,91.131c-24.059,0-43.631-19.572-43.631-43.631S23.441,3.869,47.5,3.869S91.131,23.441,91.131,47.5     S71.559,91.131,47.5,91.131z M47.5,4.869C23.994,4.869,4.869,23.993,4.869,47.5S23.994,90.131,47.5,90.131     S90.131,71.007,90.131,47.5S71.006,4.869,47.5,4.869z"></path></g></g></g></g><g id="SvgjsG1523" featureKey="nameRightFeature-0" transform="matrix(1.1749107837677002,0,0,1.1749107837677002,211.76185619581847,3.581336053034164)" fill="#3fc35f"><path d="M17.771 40 l-2.76 0 l-8 -30 l3.52 0 l5.84 22.84 l6 -22.84 l3.44 0 z M27.782000000000004 40 l0 -30 l14.72 0 l0 3.76 l-11.36 0 l0 9.24 l11.28 0 l0 3.32 l-11.28 0 l0 9.92 l11.64 0 l0 3.76 l-15 0 z M51.593 40.36 c-2.5067 0 -4.3932 -0.71332 -5.66 -2.14 s-1.9 -3.4867 -1.9 -6.18 l0 -14 c0 -2.7467 0.64 -4.82 1.92 -6.22 s3.2933 -2.1 6.04 -2.1 c2.5867 0 4.5068 0.70668 5.76 2.12 s1.88 3.4533 1.88 6.12 l0 2.8 l-3.48 0 l0 -3.2 c0 -0.58668 -0.06 -1.16 -0.18 -1.72 s-0.34 -1.06 -0.66 -1.5 s-0.75332 -0.79332 -1.3 -1.06 s-1.2467 -0.4 -2.1 -0.4 s-1.5666 0.12 -2.14 0.36 s-1.0333 0.58 -1.38 1.02 s-0.58668 0.98 -0.72 1.62 s-0.2 1.36 -0.2 2.16 l0 14.16 c0 1.6267 0.3 2.84 0.9 3.64 s1.7 1.2 3.3 1.2 c1.76 0 2.96 -0.42 3.6 -1.26 s0.96 -1.9933 0.96 -3.46 l0 -4.8 l-5.64 -0.04 l0 -3.4 l9.04 0.04 l0 7.92 c0 2.72 -0.62 4.7868 -1.86 6.2 s-3.3 2.12 -6.18 2.12 z M76.924 40 l-2.04 -8.36 l-7.76 0 l-2.04 8.36 l-3.4 0 l8 -30 l2.76 0 l7.96 30 l-3.48 0 z M71.124 15.8 l-3.16 12.44 l6.08 0 z M95.935 40 l-9.28 -21.52 l0 21.52 l-3.52 0 l0 -30 l3.36 0 l9.36 20.68 l0.2 -20.68 l3.48 0 l0 30 l-3.6 0 z"></path></g>
			</g>
		</svg>
	