<?xml version="1.0" encoding="utf-8"?>
<!-- Generator: Adobe Illustrator 23.0.0, SVG Export Plug-In . SVG Version: 6.00 Build 0)  -->
<svg version="1.1" id="fd0d1b37-5b90-41a2-b2fb-759c1923dc4a"
	 xmlns="http://www.w3.org/2000/svg" xmlns:xlink="http://www.w3.org/1999/xlink" x="0px" y="0px" viewBox="0 0 998.3 772.8"
	 style="enable-background:new 0 0 998.3 772.8;" xml:space="preserve">
<style type="text/css">
	.st0{fill:#3F3D56;}
	.st1{fill:#1F4068;}
	.st2{fill:#6C63FF;}
	.st3{fill:#0A043C;}
	.st4{fill:#2F2E41;}
	.st5{fill:#212B3A;}
	.st6{fill:#1B1B2F;}
	.st7{fill:#FFB9B9;}
	.st8{fill:#BBBBBB;}
	.st9{fill:#9F616A;}
	.st10{fill:#162447;}
	.st11{opacity:0.1;fill:#162447;enable-background:new    ;}
	.st12{fill:#A0A1A3;}
	.st13{opacity:0.1;fill:#212A3A;enable-background:new    ;}
	.st14{opacity:0.1;enable-background:new    ;}
	.st15{fill:#F2F2F2;}
	.st16{fill:#E8E8EA;}
	.st17{fill:#A03248;}
	.st18{fill:#E43F5A;}
	.st19{fill:#F9C0AF;}
	.st20{fill:#F4CDC6;}
	.st21{fill:#D0CDE1;}
	.st22{fill:#F94872;}
	.st23{opacity:0.1;fill:#FFFFFF;enable-background:new    ;}
	.st24{fill:#FFFFFF;}
	.st25{fill:#1E2530;}
</style>
<title>special_event</title>
<path class="st0" d="M443.4,175.7c-41.1,0-81.9-6.8-120.7-20.3c-52.1-18-94.7-42.8-126.7-73.8C135.4,23.1,85.7,14.3,54.6,17.2
	C21.1,20.3,1.5,37.5,1.3,37.7L0,36.2c0.2-0.2,20.1-17.8,54.3-21c20-1.9,41,1.4,62.3,9.8c26.6,10.5,53.7,29.1,80.7,55.2
	c31.8,30.8,74.2,55.4,126,73.3c95,32.9,202.2,24.9,293.9-21.8c30.4-15.5,60.4-26,89.2-31.4c36.4-6.8,70.8-5.2,102.5,4.7
	c69.5,21.6,117.1,20.5,144.7,15.7c29.8-5.1,43.3-15.5,43.4-15.6l1.2,1.6c-0.6,0.4-14,10.7-44.3,15.9c-27.8,4.8-75.7,6-145.6-15.8
	c-70.8-22-142.5,2.3-190.2,26.6c-45.3,23.2-94.8,37.2-145.6,41.1C462.8,175.3,453.1,175.7,443.4,175.7z"/>
<path class="st1" d="M439.4,160c-11.2,0-20.3,9.1-20.3,20.3s9.1,20.3,20.3,20.3s20.3-9.1,20.3-20.3S450.6,160,439.4,160z M438,183
	C436.9,183,437,183,438,183C439.1,183,439,183,438,183z"/>
<path class="st2" d="M446,178C444.9,178,445,178,446,178C447.1,178,447,178,446,178z"/>
<path class="st1" d="M753.4,79c-11.2,0-20.3,9.1-20.3,20.3s9.1,20.3,20.3,20.3s20.3-9.1,20.3-20.3S764.6,79,753.4,79z M753,98
	C751.9,98,752,98,753,98C754.1,98,754,98,753,98z"/>
<circle class="st1" cx="100.4" cy="20.3" r="20.3"/>
<path class="st3" d="M584.7,484.5v195.8h30.8V501.7h123.2v178.6h30.8V288.7h-30.8c-10.2,0-25.9,53.1-25.9,106.5
	c0,40.2,4.7,74.7,11.4,89.3H584.7z M738.7,484.5h-0.3c0.1-0.2,0.2-0.5,0.3-0.7V484.5z"/>
<path class="st4" d="M698.8,191.7L698.8,191.7c-25.3,0-45.8,22.7-45.8,50.8v35.6h11l6.3-13.2l-1.6,13.2h70.4l5.8-12l-1.4,12h7.9v-28
	C751.5,217.9,727.9,191.7,698.8,191.7z"/>
<path class="st5" d="M646.4,424.6l-28.1,11.9l-97.6,79.4c-3.6,4.4-5.8,9.8-6.3,15.5c-0.7,9.1-30.2,56.9-19.7,63.2
	s48.5,25.3,50.6,12.6s13.3-66.7,13.3-66.7l94.1-84.3L646.4,424.6z"/>
<path class="st6" d="M536.1,596.7l-11.9,35.1c0,0,12.6,13.3,6.3,24.6V695h-9.8l-2.8-20.4c0,0-11.2,20.1-16.9,20.4
	c-11.9,0.5-35.3,4.8-36-1.6s17.8-12.5,17.8-12.5l19.7-54.1l8.4-33L536.1,596.7z"/>
<path class="st5" d="M719.5,415.4c0,0,6.3,61.8-11.9,73.1s-99,47.1-99,47.1s34.4,32.3,27.4,40s-38.6,28.8-42.8,24.6
	s-51.3-54.8-45.7-70.9s83.6-68.8,83.6-68.8l9.1-33l2.8-26.7l29.5-19L719.5,415.4z"/>
<circle class="st7" cx="687.3" cy="242.2" r="29.3"/>
<path class="st7" d="M710,254.2c0,0-1.4,26.7,20.4,35.1s-54.1,63.2-54.1,63.2v-61.1c0,0,9.8-10.5,0-26.7L710,254.2z"/>
<path class="st7" d="M756.7,379.6l-5.6,27.4l-16.9,94.1c0,0,14,40-4.9,39.3s-9.8-43.6-9.8-43.6l9.8-78v-30.2L756.7,379.6z"/>
<path class="st7" d="M635.9,366.3l-6.3,24.6l-28.8,69.5c0,0-19.7,33-3.5,32.3s16.2-32.3,16.2-32.3l33-56.2v-31.6L635.9,366.3z"/>
<path class="st6" d="M631,571.4l23.2,21.8c0,0,16.2-3.5,22.5,15.5s10.5,30.9,10.5,30.9l-8.4,4.9l-10.5-14.8c0,0-6.3,26.7-12.6,28.8
	s-37.9,16.2-35.1,0l15.5-22.5c0,0,2.1-25.3-4.2-27.4s-23.2-23.2-23.2-23.2L631,571.4z"/>
<path class="st0" d="M720.6,437.2c0,0-66-23.9-70.2-21.8c-3.1,1.4-6.5,2.3-9.9,2.6l0.1-9.6c0,0,21.8-7.7,33.7-2.8
	s48.5,26.7,48.5,26.7L720.6,437.2z"/>
<path class="st8" d="M680.5,338.5c0,0,19-21.8,24.6-35.1c3.6-8.1,10.1-14.5,18.2-17.9c0,0,42.2,9.5,41.5,26.4s-26.7,42.8-26.7,42.8
	s3.5,93.4-15.5,92c-4.1-4.9-7-10.7-8.4-16.9c-2.1-9.8-67.4-20.4-67.4-20.4s-5.6,9.8-6.3,5.6s5.6-107.5,5.6-107.5l33.5-22.1
	L680.5,338.5z"/>
<path class="st8" d="M759.4,305l0.5,0.3c3.1,1.7,4.9,4.9,4.9,8.5v52.1c0,2.9,1.3,5.6,3.5,7.4c2.7,2.3,5.2,5.6,0,7.3
	c-8.4,2.8-41.4,16.9-42.1,11.9s-2.1-10.5,0-10.5c1.6,0,11.5-50.4,19.4-71.9c1.8-5,7.4-7.6,12.4-5.8
	C758.4,304.6,758.9,304.8,759.4,305z"/>
<path class="st8" d="M655.5,305.1l-9.8,2.8l-11.2,48.5c0,0-13.3,2.8-9.1,7.7s21.8,17.6,21.8,17.6L655.5,305.1z"/>
<path class="st4" d="M711.9,205.7c-4.5-6-11.5-9.6-18.9-9.7h-1c-17.3,0-31.4,15.7-31.4,35l0,0h5.8l0.9-7.1l1.4,7.1h34.4l2.9-6
	l-0.7,6h6.8c3.2,15.7-1.4,31.4-13.6,47.1H710l5.8-12.1l-1.4,12.1h22l4.3-27.8C740.7,229.6,728.6,212,711.9,205.7z"/>
<path class="st3" d="M123.5,529.7c7.4-16.1,12.6-54.2,12.6-98.7c0-59-17.3-117.8-28.6-117.8h-34v433h34V548.8h136.2v197.5h34V529.7
	H123.5z M107.5,529c0.1,0.3,0.2,0.5,0.3,0.7h-0.3V529z"/>
<path class="st9" d="M265.4,450.7c0,0,41,17,28,27s-40-12-39-15s-4-10-4-10L265.4,450.7z"/>
<path class="st10" d="M229.4,316.7l13,12l3,35l10,37c0,0,17,35,14,42s3,9,3,9l-23,9c0,0-25-28-25-34S229.4,316.7,229.4,316.7z"/>
<path class="st11" d="M229,316.7l13,12l3,35l10,37c0,0,17,35,14,42s3,9,3,9l-23,9c0,0-25-28-25-34S229,316.7,229,316.7z"/>
<path class="st12" d="M352.4,676.7c0,0-5,23-6,25s19,9,19,9l24-17c0,0-10-22-10-26L352.4,676.7z"/>
<path class="st5" d="M373.2,502.5c-3-28-148-46-148-46l-7-8l-65,8c0,0-8,11-4,36s177,47,177,47c-4,20,16,130,16,138s31-7,43-11
	S376.2,530.5,373.2,502.5z M351.7,637.7C350.6,637.7,350.7,637.7,351.7,637.7C352.8,637.7,352.7,637.7,351.7,637.7z"/>
<path class="st13" d="M373.2,502.5c-3-28-148-46-148-46l-7-8l-65,8c0,0-8,11-4,36s177,47,177,47c-4,20,16,130,16,138s31-7,43-11
	S376.2,530.5,373.2,502.5z M352.4,637.3C351.3,637.3,351.3,637.2,352.4,637.3C353.4,637.2,353.4,637.3,352.4,637.3z"/>
<path class="st6" d="M350.4,699.7c0,0-4-9-6-6s-9,38-2,38s71,16,80,14s26,1,24-9s-12-11-12-11s-37-22-39-33s-13-5-13-5v7
	C382.4,694.7,361.4,710.7,350.4,699.7z"/>
<path class="st9" d="M160.4,240.7c0,0,7,34-8,37s19,23,19,23l22,12l16-16c0,0-14.5-29.5-3.5-51.5S160.4,240.7,160.4,240.7z"/>
<path class="st9" d="M209.4,296.7l-16,16l-22-12c0,0-34-20-19-23c9.6-1.9,10.2-16.7,9.4-27c-0.3-3.4-0.7-6.7-1.4-10
	c0,0,56.5-17.5,45.5,4.5c-1.7,3.4-2.8,7-3.4,10.8C199.1,275.8,209.4,296.7,209.4,296.7z"/>
<polygon class="st12" points="265.4,705.7 265.4,728.7 303.4,728.7 306.4,719.7 302.4,695.7 "/>
<path class="st5" d="M108.4,472.7c0,0,0,59,24,61s110,13,110,13s5,98,14,130s1,34,9,36s42-5,41-12s-5-184-5-184s9-38-111-56
	L108.4,472.7z"/>
<path class="st6" d="M268.4,721.7c0,0-6-13-7-9s-13,39-1,42s50,19,75,18s28-2,28-2s7-10-2-16s-46-41-48-45s-17-7-17,0
	S275.4,730.7,268.4,721.7z"/>
<path class="st14" d="M205.9,245.2c-1.7,3.4-2.8,7-3.4,10.8c-5,3-8.3,2.2-14.6,2.2c-9.3,0-13-11.9-19-18c-0.5-5.7-8.5,0.5-8.5,0.5
	S216.9,223.2,205.9,245.2z"/>
<circle class="st9" cx="185.4" cy="224.7" r="33"/>
<path class="st10" d="M242.5,328.8c0,0-5,36-8,49s-7,73-9.1,81c-2,8-14,10-38,7c-1.5-0.2-3-0.3-4.5-0.3c-14.8-0.5-31.7,5-47.3,9.4
	c-9,2.5-17.6,4.6-25.1,4.9C99,480.2,95.6,467.6,96,453.9c0.4-12.7,4-26.4,7.4-31.2c6.1-8.7,0.2-86.6,2.4-112.3l0,0
	c0.3-3.9,0.9-6.6,1.7-7.7c6-8,45-28,49.4-27.2s41.6,24.2,41.6,24.2c9,0,8.7-9.8,8.7-9.8s6.3,11.8,18.3,14.8
	C237.5,307.8,242.5,328.8,242.5,328.8z"/>
<path class="st9" d="M175.6,458.4c0,0,64.4,2.1,53.1,9.7s-61.3,14.7-62.3,4.7S175.6,458.4,175.6,458.4z"/>
<path class="st14" d="M182.9,465.4c0.2,3.8-10.1,12.5-13.5,18.3c-1.9,3.2-16.2-1-33.9-8.9c-13.6-6.1-26.8-13.1-39.5-20.9
	c0.4-12.7,4-26.4,7.4-31.2c6.1-8.7,0.1-86.6,2.3-112.3l0,0c0.5-0.3,1.1-0.5,1.7-0.7h12c41,19-6,101-6,101s62,51,68,53
	C182.2,463.9,182.8,464.6,182.9,465.4z"/>
<path class="st10" d="M119.4,303.7h-12c0,0-11,3-20,23s-42,82-13,106s91,52,95,45s18-18,12-20s-68-53-68-53S160.4,322.7,119.4,303.7
	z"/>
<path class="st4" d="M180.4,209.4c0,0,1.4-20,19.3-11.9s16.7-14.4,11.3-18.3s-5.2-5-25-2.3s-58.1,7.2-45.7,46.9s23.6,29.5,23.6,29.5
	s-9.9-35.7,0.1-28.9l10,6.8l5.3-1.1L180.4,209.4z"/>
<path class="st3" d="M617.9,465.4c-165.5,0-299.6,14.6-299.6,32.7c0,7,20.2,13.5,54.5,18.8v223.6h16.3V519.1
	c55,7.1,137,11.6,228.8,11.6c92.5,0,175.2-4.6,230.1-11.8v221.5h16.3V516.6c33.5-5.3,53.1-11.7,53.1-18.6
	C917.5,480,783.4,465.4,617.9,465.4z"/>
<ellipse class="st15" cx="655.5" cy="483.7" rx="61" ry="15"/>
<ellipse transform="matrix(2.985821e-02 -0.9996 0.9996 2.985821e-02 152.4414 1124.4202)" class="st16" cx="655.5" cy="483.7" rx="12.3" ry="50"/>
<path class="st15" d="M428.5,480.7c-33.7,0-61,6.7-61,15s27.3,15,61,15s61-6.7,61-15C489.5,487.4,462.2,480.7,428.5,480.7z
	 M423.4,498.8C422.3,498.8,422.4,498.7,423.4,498.8C424.5,498.7,424.4,498.8,423.4,498.8z"/>
<path class="st16" d="M428.5,483.4c-27.6,0-50,5.5-50,12.3s22.4,12.3,50,12.3s50-5.5,50-12.3S456.1,483.4,428.5,483.4z M423.4,498.8
	C422.3,498.8,422.4,498.7,423.4,498.8C424.5,498.7,424.4,498.8,423.4,498.8z"/>
<ellipse class="st9" cx="654.1" cy="478.1" rx="29.1" ry="4.6"/>
<ellipse transform="matrix(0.9995 -3.121455e-02 3.121455e-02 0.9995 -14.3793 20.0909)" class="st17" cx="636.3" cy="470.6" rx="9.2" ry="5"/>
<ellipse class="st18" cx="654" cy="472.5" rx="9.2" ry="5"/>
<ellipse class="st18" cx="636" cy="472.7" rx="9.2" ry="5"/>
<ellipse transform="matrix(0.9966 -8.225291e-02 8.225291e-02 0.9966 -36.5718 54.0476)" class="st17" cx="637.7" cy="470.9" rx="9.2" ry="5"/>
<ellipse class="st18" cx="670.9" cy="472.8" rx="9.2" ry="5"/>
<ellipse class="st17" cx="654.4" cy="472" rx="9.2" ry="5"/>
<ellipse transform="matrix(0.9999 -1.591467e-02 1.591467e-02 0.9999 -7.416 10.7133)" class="st17" cx="669.4" cy="471.3" rx="9.6" ry="5"/>
<path class="st19" d="M682,467.5c-16.6,5.6-35.2,5.6-55.9,0v-0.8c0-12.2,9.5-22.2,21.7-22.8c4.9-0.2,9.9-0.2,14.8,0
	c10.9,0.6,19.4,9.7,19.4,20.6V467.5z"/>
<path class="st20" d="M673.7,489.4c-12.3,1.2-24.6,1.2-36.9,0c-6-0.6-10.6-5.7-10.6-11.7h58.2C684.3,483.8,679.7,488.8,673.7,489.4z
	"/>
<path class="st21" d="M646.2,451.9c-2.7,1.1-5.7,1.1-8.4,0C640.5,450.7,643.5,450.7,646.2,451.9z"/>
<path class="st21" d="M654.6,455.3c-2.7,1.1-5.7,1.1-8.4,0C648.9,454.2,651.9,454.2,654.6,455.3z"/>
<path class="st21" d="M655.4,449.2c-2.7,1.1-5.7,1.1-8.4,0C649.7,448.1,652.7,448.1,655.4,449.2z"/>
<path class="st21" d="M671.1,449.2c-2.7,1.1-5.7,1.1-8.4,0C665.4,448.1,668.4,448.1,671.1,449.2z"/>
<path class="st21" d="M666.9,452.6c-2.7,1.1-5.7,1.1-8.4,0C661.2,451.5,664.2,451.5,666.9,452.6z"/>
<path class="st22" d="M708,479.7l0.1,3.1l0.2,4c0,0-18.5,1-22.2,5c-0.1,0.1-0.2,0.2-0.2,0.3l-7.4-1.6v-3.6c0,0,0.1-0.1,0.3-0.2
	c0,0,0.1-0.1,0.2-0.1C688,482.1,697.9,479.7,708,479.7z"/>
<path class="st14" d="M708,479.7l0.1,3.1c-8.2,0.3-23.7,5.1-23.7,5.1l-5.7-1.3C687.8,482.1,697.8,479.7,708,479.7z"/>
<path class="st23" d="M678.9,486.5l5.5,1.4l1.7,3.9c-0.1,0.1-0.2,0.2-0.2,0.3l-7.4-1.6v-3.6c0,0,0.1-0.1,0.3-0.2
	C678.8,486.6,678.9,486.5,678.9,486.5z"/>
<path class="st22" d="M485,492.7l0.1,3.1l0.2,4c0,0-18.5,1-22.2,5c-0.1,0.1-0.2,0.2-0.2,0.3l-7.4-1.6v-3.6c0,0,0.1-0.1,0.3-0.2
	c0,0,0.1-0.1,0.2-0.1C465,495.1,474.9,492.7,485,492.7z"/>
<path class="st14" d="M485,492.7l0.1,3.1c-8.2,0.3-23.7,5.1-23.7,5.1l-5.7-1.3C464.8,495.1,474.8,492.7,485,492.7z"/>
<path class="st23" d="M455.9,499.5l5.5,1.4l1.7,3.9c-0.1,0.1-0.2,0.2-0.2,0.3l-7.4-1.6v-3.6c0,0,0.1-0.1,0.3-0.2
	C455.8,499.6,455.9,499.5,455.9,499.5z"/>
<path class="st1" d="M819.1,386.9c-1.6-1.6-3.4-2.8-5.4-3.8v-38.9c0-0.9-0.8-1.7-1.7-1.7l0,0h-9.6c-0.9,0-1.7,0.8-1.7,1.7l0,0v38.1
	c-7.1,2.4-11.9,9-11.9,16.5v83.4c0,4.2,3.4,7.6,7.6,7.6H817c4.2,0,7.6-3.4,7.6-7.6v-82.4C824.5,395,822.5,390.3,819.1,386.9z"/>
<rect x="788.6" y="411.1" class="st18" width="35.8" height="47.4"/>
<path class="st18" d="M814.4,345.2h-0.8v-0.9c0-0.9-0.8-1.7-1.7-1.7l0,0h-9.6c-0.9,0-1.7,0.8-1.7,1.7l0,0v0.9h-0.8v4h0.8v20.4h13.1
	v-20.4h0.8L814.4,345.2L814.4,345.2z"/>
<path class="st21" d="M532.1,420.6c-0.9-2-1.7-3.5-2-3.9c-16.1,4-26.8,0.6-28.5,0c-0.8,1.6-6,11.6-8.1,21.1
	c-1.9,8.6-0.8,14.4,3.3,17.2l0.1,0.1l0,0c4.5,2.9,8.7,5.6,12.7,7.7c0.5,0.3,1,0.6,1.5,0.8h0.1l0,0c0.5,0.7,1,1.4,1.5,2.1
	c0.9,1.2,1.4,2.6,1.5,4.1V513h-0.3c-10.3,0.2-16.6,1.9-16.6,3.4c0,1.6,7.6,3.5,18.5,3.5s18.5-1.8,18.5-3.5c0-1.5-6.2-3.2-16.3-3.4
	h-0.3l0.3-39.7c0-2.7,0.6-5.3,1.8-7.7c0.2-0.4,0.4-0.8,0.7-1.2c0.2-0.3,0.4-0.6,0.6-0.9v-0.1h0.1c0.5-0.3,1-0.6,1.6-0.9h0.1
	c3.7-2.1,7.7-4.6,11.9-7.3c3.7-2.5,5-7.5,3.9-14.8C537.6,433.3,534.5,425.7,532.1,420.6z"/>
<path class="st18" d="M533,454.2c-4.4,2.9-8,5.1-10.8,6.6l0,0c-4-0.3-8.1-0.2-12.1,0.3c-2.8-1.6-6.7-3.9-11.4-7l-0.1-0.1l0,0
	c-4.3-3-4.4-9.3-3-15.7c3.6-0.4,9.3-0.2,17,2.5c9.1,3.2,18.6,1.4,24.1-0.3C537.5,446.4,537,451.6,533,454.2z"/>
<circle class="st1" cx="506.9" cy="434.8" r="1.2"/>
<circle class="st24" cx="503.4" cy="446.3" r="1.2"/>
<circle class="st1" cx="509.9" cy="437.8" r="0.7"/>
<circle class="st24" cx="512.9" cy="452" r="0.7"/>
<circle class="st24" cx="507.6" cy="452.7" r="0.7"/>
<circle class="st1" cx="523.4" cy="427.3" r="1.2"/>
<path class="st21" d="M590.5,380.1c-0.9-2-1.7-3.5-2-3.9c-16.1,4-26.8,0.6-28.5,0c-0.8,1.6-6,11.6-8.1,21.1
	c-1.9,8.6-0.8,14.4,3.3,17.2l0.1,0.1l0,0c4.5,2.9,8.7,5.6,12.7,7.7c0.5,0.3,1,0.6,1.5,0.8h0.1l0,0c0.5,0.7,1,1.4,1.5,2.1
	c0.9,1.2,1.4,2.6,1.5,4.1v42.9h-0.3c-10.3,0.2-16.6,1.9-16.6,3.4c0,1.6,7.6,3.5,18.5,3.5s18.5-1.8,18.5-3.5c0-1.5-6.2-3.2-16.3-3.4
	h-0.3l0.3-39.7c0-2.7,0.6-5.3,1.8-7.7c0.2-0.4,0.4-0.8,0.7-1.2c0.2-0.3,0.4-0.6,0.6-0.9v-0.1h0.1c0.5-0.3,1-0.6,1.6-0.9h0.1
	c3.7-2.1,7.7-4.6,11.9-7.3c3.7-2.5,5-7.5,3.9-14.8C595.9,392.8,592.9,385.3,590.5,380.1z"/>
<path class="st18" d="M591.4,413.8c-4.4,2.9-8,5.1-10.8,6.6l0,0c-4-0.3-8.1-0.2-12.1,0.3c-2.8-1.6-6.7-3.9-11.4-7l-0.1-0.1l0,0
	c-4.3-3-4.4-9.3-3-15.7c3.6-0.4,9.3-0.2,17,2.5c9.1,3.2,18.6,1.4,24.1-0.3C595.9,405.9,595.4,411.2,591.4,413.8z"/>
<circle class="st1" cx="565.3" cy="394.4" r="1.2"/>
<circle class="st24" cx="561.8" cy="405.8" r="1.2"/>
<circle class="st1" cx="568.3" cy="397.3" r="0.7"/>
<circle class="st24" cx="571.3" cy="411.5" r="0.7"/>
<circle class="st24" cx="566" cy="412.3" r="0.7"/>
<circle class="st1" cx="581.6" cy="387" r="1.1"/>
<ellipse class="st9" cx="426.8" cy="490" rx="29.1" ry="4.6"/>
<ellipse transform="matrix(0.9995 -3.120082e-02 3.120082e-02 0.9995 -14.8582 12.996)" class="st17" cx="409" cy="482.6" rx="9.2" ry="5"/>
<ellipse class="st18" cx="426.7" cy="484.4" rx="9.2" ry="5"/>
<ellipse class="st18" cx="408.7" cy="484.7" rx="9.2" ry="5"/>
<ellipse transform="matrix(0.9966 -8.230125e-02 8.230125e-02 0.9966 -38.3509 35.4147)" class="st17" cx="410.4" cy="482.9" rx="9.2" ry="5"/>
<ellipse class="st18" cx="443.6" cy="484.7" rx="9.2" ry="5"/>
<ellipse class="st17" cx="427.1" cy="484" rx="9.2" ry="5"/>
<ellipse transform="matrix(0.9999 -1.589916e-02 1.589916e-02 0.9999 -7.6268 7.0903)" class="st17" cx="442.1" cy="483.2" rx="9.6" ry="5"/>
<path class="st19" d="M454.8,477.9c-16.6,5.6-35.2,5.6-55.9,0v-0.8c0-12.2,9.5-22.2,21.7-22.8c4.9-0.3,9.9-0.2,14.8,0
	c10.9,0.6,19.4,9.7,19.4,20.6V477.9z"/>
<path class="st20" d="M398.8,489.6c0,6,4.6,11.1,10.6,11.7c12.3,1.2,24.6,1.2,36.9,0c6-0.6,10.6-5.7,10.6-11.7H398.8z"/>
<path class="st21" d="M418.9,463.8c-2.7,1.1-5.7,1.1-8.4,0C413.2,462.7,416.2,462.7,418.9,463.8z"/>
<path class="st21" d="M427.3,467.3c-2.7,1.1-5.7,1.1-8.4,0C421.6,466.1,424.7,466.1,427.3,467.3z"/>
<path class="st21" d="M428.1,461.1c-2.7,1.1-5.7,1.1-8.4,0C422.4,460,425.4,460,428.1,461.1z"/>
<path class="st21" d="M443.8,461.1c-2.7,1.1-5.7,1.1-8.4,0C438.1,460,441.1,460,443.8,461.1z"/>
<path class="st21" d="M439.6,464.6c-2.7,1.1-5.7,1.1-8.4,0C433.9,463.5,436.9,463.5,439.6,464.6z"/>
<g>
	<path class="st25" d="M325.3,491.6L325.3,491.6c0.3,0.4,0.7,0.8,0.9,1.1l-0.3,0.3c0.4,0.8,0.8,2.4,0.8,3.2c0,0.3-0.2,0.7-0.5,1
		l-0.1-0.1c0-0.1,0-0.3,0-0.5c0-1.2-0.7-3.1-1.4-4.4C325,492,325.1,491.8,325.3,491.6z"/>
	<path class="st25" d="M332.9,495.6c-0.1,0.3-0.2,1.1-0.3,1.4h-4.3v-0.2c0.8-0.1,0.9-0.1,0.9-0.8v-3.4c0-0.8-0.1-0.8-0.8-0.9v-0.3h4
		c0,0.2,0,0.8,0.1,1.3l-0.3,0c-0.1-0.4-0.2-0.6-0.3-0.7c-0.1-0.2-0.4-0.2-1-0.2h-0.7c-0.3,0-0.3,0-0.3,0.3v1.9h0.8
		c0.8,0,0.8-0.1,1-0.7h0.3v1.7h-0.3c-0.1-0.6-0.2-0.7-1-0.7H330v1.6c0,0.4,0,0.6,0.2,0.7c0.2,0.1,0.5,0.1,0.9,0.1
		c0.6,0,0.9-0.1,1.1-0.3c0.2-0.2,0.3-0.5,0.4-0.8L332.9,495.6z"/>
	<path class="st25" d="M334.8,493.5c0.3,0.8,0.5,1.6,0.5,2.5c0,0.3,0,0.5-0.5,1.2l-0.1-0.1c0.1-0.2,0.1-0.5,0.1-0.7
		c0-1.2-0.6-2.7-1.2-4.2c0.1-0.2,0.3-0.4,0.4-0.6h0.1c0.1,0.2,0.3,0.6,0.4,0.8c0.3,0.3,0.8,0.4,1.1,0.4c0.4,0,0.9-0.2,1-1.2
		c0.1,0,0.2,0.1,0.2,0.1c0,0.1,0,0.2,0,0.3c0,1-0.5,1.6-1.4,1.6C335.3,493.6,335.1,493.5,334.8,493.5L334.8,493.5z"/>
	<path class="st25" d="M339.5,492c0.9,0,1.6,1.5,1.6,2.5c0,0.4,0,1-0.2,1.3c-0.2,0.4-0.9,0.9-1.6,0.9c-0.7,0-1.5-0.4-1.5-1.9
		C337.8,493.3,338.6,492,339.5,492z M340.8,494.9c0-0.3-0.4-2-1.3-2c-0.6,0-1.3,1-1.3,1.8c0,0.5,0.5,1.2,1.3,1.2
		C340.3,495.9,340.8,495.1,340.8,494.9z"/>
	<path class="st25" d="M343,493.4c0.3,0.8,0.5,1.6,0.5,2.6c0,0.3,0,0.5-0.5,1.2l-0.1-0.1c0.1-0.2,0.1-0.4,0.1-0.7
		c0-1.2-0.6-2.7-1.2-4.2c0.1-0.2,0.3-0.4,0.4-0.6h0.1c0.1,0.2,0.3,0.6,0.4,0.8c0.2,0.3,0.6,0.4,0.8,0.4c0.3,0,0.5-0.2,0.5-0.7
		c0-0.1,0-0.2,0-0.4c0.1,0,0.2-0.1,0.2-0.1c0.1,0.7,0.3,0.9,0.6,0.9c0.2,0,0.5-0.2,0.5-0.6c0-0.1,0-0.2,0-0.2c0.1,0,0.2,0,0.3,0
		c0,0.2,0,0.3,0,0.5c0,0.7-0.3,1.1-0.8,1.1c-0.2,0-0.4-0.1-0.6-0.2l0,0c-0.1,0.3-0.5,0.5-0.8,0.5C343.3,493.5,343.1,493.5,343,493.4
		L343,493.4z"/>
	<path class="st25" d="M347.7,493.8c0.8,0.5,1.1,0.8,1.1,0.9c0,0.1-0.2,0.5-0.5,0.9c-0.4-0.3-0.8-0.6-1.1-0.8
		C347.3,494.4,347.5,494.1,347.7,493.8z"/>
</g>
</svg>
